<?xml version="1.0" encoding="utf-8"?>
<!-- Generator: Adobe Illustrator 16.0.0, SVG Export Plug-In . SVG Version: 6.00 Build 0)  -->
<!DOCTYPE svg PUBLIC "-//W3C//DTD SVG 1.1//EN" "http://www.w3.org/Graphics/SVG/1.1/DTD/svg11.dtd">
<svg version="1.1" id="Layer_1" xmlns="http://www.w3.org/2000/svg" xmlns:xlink="http://www.w3.org/1999/xlink" x="0px" y="0px"
	 width="240.94px" height="155.91px" viewBox="0 0 240.94 155.91" xml:space="preserve">
<g>
	<g>
		<path fill="#FFFFFF" d="M23.364,61.916c1.45,0,6.122,2.043,10.525,2.043c8.753,0,14.821-6.022,14.821-13.065
			c0-14.249-23.037-9.463-23.037-19.411c0-3.172,3.168-6.721,8.86-6.721c6.98,0,8.753,5.376,10.417,10.323h0.698V24.87H44.79
			c-0.322,0.86-0.537,1.129-1.503,1.129c-1.719,0-3.974-1.989-8.699-1.989c-7.572,0-12.941,5.377-12.941,11.076
			c0,15.432,22.124,9.087,22.124,19.787c0,2.796-1.933,8.334-9.451,8.334c-2.148,0-5.048,0-8.323-3.226
			c-2.954-2.903-4.028-7.043-4.35-8.764H20.84v11.937h0.859C22.075,62.185,22.397,61.916,23.364,61.916z M75.556,57.184
			l-0.752-0.269c-0.161,1.237-2.255,6.237-7.947,6.237c-6.39,0-6.82-5.968-6.82-11.076v-2.419h15.841
			c0-7.312-5.639-10.324-10.579-10.324c-6.981,0-12.512,6.022-12.512,12.206c0,7.689,5.799,12.367,13.263,12.367
			C72.28,63.905,74.857,59.819,75.556,57.184z M65.138,40.086c3.49,0,3.49,3.71,3.49,5.215v3.603h-8.592
			C60.198,45.248,60.305,40.086,65.138,40.086z M87.636,63.905c3.812,0,5.584-0.807,6.712-3.71h0.107
			c0.43,2.258,2.095,3.71,5.692,3.71c1.665,0,3.812-0.054,4.833-1.613l-0.483-0.484c-0.591,0.646-1.128,1.022-2.041,1.022
			c-1.558,0-1.772-1.237-1.772-2.581V46.915c0-6.076-4.403-7.582-9.827-7.582c-4.672,0-9.183,2.043-9.183,5.807
			c0,2.419,1.665,2.742,3.115,2.742c0.966,0,3.275,0,3.275-2.205c0-0.484-0.322-2.581-0.322-2.957c0-1.99,1.396-2.635,3.061-2.635
			c2.631,0,3.33,1.936,3.33,3.817v3.28c0,2.688-1.235,3.119-7.035,4.893c-3.544,1.076-7.088,2.258-7.088,6.452
			C80.01,62.668,84.199,63.905,87.636,63.905z M92.576,51.108c0.967-0.484,1.343-0.86,1.45-1.291h0.107v7.098
			c0,4.194-1.934,5.753-3.759,5.753c-3.329,0-3.49-3.441-3.49-5.108C86.884,53.259,89.891,52.399,92.576,51.108z M127.746,56.163
			c0-3.387-2.041-5.592-5.907-6.936l-4.564-1.559c-3.651-1.237-3.92-2.85-3.92-3.872c0-2.473,2.363-3.71,4.726-3.71
			c4.457,0,5.692,2.957,7.142,6.452h0.698v-6.56h-0.752c-0.107,0.322-0.269,0.699-1.02,0.699c-0.859,0-3.008-1.344-5.692-1.344
			c-5.209,0-8.807,3.495-8.807,7.689c0,3.818,2.9,5.484,4.887,6.237l4.35,1.613c3.812,1.398,4.242,2.796,4.242,4.14
			c0,4.14-3.544,4.14-4.779,4.14c-4.994,0-6.605-3.764-8.27-7.796h-0.752v7.796h0.752c0.215-0.538,0.376-0.752,0.966-0.752
			c1.289,0,4.887,1.505,7.518,1.505C123.289,63.905,127.746,60.894,127.746,56.163z M144.766,63.905
			c7.411,0,13.103-5.646,13.103-12.313c0-6.613-5.691-12.259-13.103-12.259c-7.41,0-13.102,5.646-13.102,12.259
			C131.664,58.26,137.355,63.905,144.766,63.905z M144.766,40.086c5.585,0,5.854,5.753,5.854,11.506
			c0,5.807-0.269,11.56-5.854,11.56c-5.584,0-5.853-5.753-5.853-11.56C138.913,45.839,139.182,40.086,144.766,40.086z M175.426,62.4
			h-3.383V50.894c0-6.56,3.061-9.84,6.497-9.84c2.04,0,3.383,1.398,3.383,4.355V62.4h-3.329v0.752h13.479V62.4h-3.598V47.237
			c0-4.624-2.847-7.635-7.465-7.635c-6.39,0-8.377,4.517-8.967,5.861h-0.107v-5.377h-9.988v0.753h3.544V62.4h-3.544v0.752h13.479
			V62.4z M194.808,31.645c0.752,0,1.611-0.108,2.255-0.538c0.377,0.323,0.806,1.076,0.806,2.205c0,2.581-2.255,4.409-5.745,6.829
			l0.376,0.699c3.061-1.936,7.625-4.839,7.625-10.431c0-4.086-2.202-6.398-4.94-6.398c-1.88,0-4.081,1.129-4.081,3.817
			C191.103,30.569,193.304,31.645,194.808,31.645z M214.998,49.227l-4.564-1.559c-3.651-1.237-3.92-2.85-3.92-3.872
			c0-2.473,2.362-3.71,4.726-3.71c4.457,0,5.691,2.957,7.142,6.452h0.698v-6.56h-0.752c-0.107,0.322-0.269,0.699-1.021,0.699
			c-0.859,0-3.007-1.344-5.691-1.344c-5.209,0-8.807,3.495-8.807,7.689c0,3.818,2.899,5.484,4.886,6.237l4.35,1.613
			c3.812,1.398,4.242,2.796,4.242,4.14c0,4.14-3.544,4.14-4.778,4.14c-4.994,0-6.605-3.764-8.27-7.796h-0.752v7.796h0.752
			c0.214-0.538,0.375-0.752,0.966-0.752c1.289,0,4.887,1.505,7.519,1.505c4.725,0,9.182-3.011,9.182-7.743
			C220.904,52.775,218.864,50.571,214.998,49.227z M25.152,102.621h5.532v2.041c0,6.5-0.806,11.55-7.358,11.55
			c-8.057,0-11.387-4.405-11.387-17.459c0-9.024-0.645-20.95,11.387-20.95c6.177-0.054,9.829,4.083,11.655,11.066h0.806V77.911
			h-0.913c-0.376,0.859-0.699,1.128-1.666,1.128c-1.88,0-5.586-1.988-9.937-1.988c-9.185,0-20.088,7.95-20.088,20.09
			c0,11.066,9.561,19.822,20.088,19.822c6.606,0,8.809-3.276,12.247-3.276c0.859,0,1.611,0.376,1.772,1.235h0.966v-12.302h3.492
			v-0.752H25.152V102.621z M60.276,92.63c-3.545,0-5.64,2.256-6.929,4.995H53.24v-4.512h-9.937v0.752h3.492v21.541h-3.492v0.752
			h14.288v-0.752h-4.243v-13.752c0-4.566,3.062-7.413,4.565-7.413c1.235,0,1.235,1.235,1.235,1.289c0,0.215-0.376,2.256-0.376,2.686
			c0,1.881,1.665,2.418,3.276,2.418c2.256,0,3.276-1.29,3.276-3.438C65.325,94.349,63.23,92.63,60.276,92.63z M89.385,102.675
			c0-7.306-5.64-10.313-10.581-10.313c-6.983,0-12.515,6.016-12.515,12.193c0,7.682,5.801,12.355,13.267,12.355
			c6.23,0,8.809-4.083,9.507-6.715l-0.752-0.269c-0.161,1.235-2.256,6.231-7.949,6.231c-6.392,0-6.822-5.963-6.822-11.066v-2.417
			H89.385z M78.643,93.113c3.491,0,3.491,3.706,3.491,5.21v3.6H73.54C73.702,98.27,73.809,93.113,78.643,93.113z M115.702,102.675
			c0-7.306-5.64-10.313-10.581-10.313c-6.982,0-12.515,6.016-12.515,12.193c0,7.682,5.801,12.355,13.267,12.355
			c6.23,0,8.809-4.083,9.507-6.715l-0.752-0.269c-0.161,1.235-2.256,6.231-7.949,6.231c-6.392,0-6.821-5.963-6.821-11.066v-2.417
			H115.702z M104.959,93.113c3.491,0,3.491,3.706,3.491,5.21v3.6h-8.594C100.018,98.27,100.125,93.113,104.959,93.113z
			 M132.403,115.836c-2.471,0-2.847-1.88-2.847-3.976V93.865h6.284v-0.752h-6.284v-6.93c-1.074,0.43-2.202,0.752-3.276,0.752
			s-2.202-0.322-3.276-0.752v6.93h-3.599v0.752h3.599v16.545c0,2.578,0,6.5,7.52,6.5c2.686,0,6.23-0.752,7.144-5.641l-0.806-0.161
			C136.271,113.311,135.089,115.836,132.403,115.836z M150.878,93.113h-10.151v0.752h3.599v21.541h-3.599v0.752h13.75v-0.752h-3.599
			V93.113z M143.788,81.563c0,2.095,1.719,3.814,3.813,3.814s3.813-1.72,3.813-3.814s-1.719-3.814-3.813-3.814
			S143.788,79.469,143.788,81.563z M183.157,100.258c0-4.62-2.847-7.628-7.466-7.628c-6.393,0-8.379,4.512-8.971,5.854h-0.107
			v-5.371h-9.99v0.752h3.545v21.541h-3.545v0.752h13.482v-0.752h-3.385V103.91c0-6.554,3.062-9.83,6.5-9.83
			c2.041,0,3.384,1.396,3.384,4.351v16.976h-3.33v0.752h13.481v-0.752h-3.599V100.258z M214.628,92.361
			c-2.362,0-3.438,0.806-5.264,2.471c-1.665-1.289-3.921-2.471-7.144-2.471c-6.499,0-10.474,3.706-10.474,8.111
			c0,3.115,2.095,4.727,3.384,5.693c-4.512,2.472-4.888,5.748-4.888,6.5c0,4.566,4.888,5.802,7.788,5.802v0.107
			c-3.223,0.859-7.144,3.062-7.144,6.876c0,1.934,1.235,6.554,10.205,6.554c7.949,0,12.729-5.587,12.729-11.12
			c0-6.66-4.888-8.541-10.259-8.541h-5.908c-2.417,0-3.975-0.859-3.975-2.632c0-0.806,0-1.719,2.095-3.062
			c1.396,0.591,3.706,1.289,6.553,1.289c7.036,0,9.668-3.922,9.668-7.467c0-2.901-1.289-4.298-2.148-5.211
			c1.396-1.021,1.826-1.235,2.256-1.235c0.752,0,0.752,0.483,0.914,1.504c0.107,0.698,0.376,1.934,2.363,1.934
			c1.45,0,2.363-0.859,2.363-2.31C217.744,93.489,216.724,92.361,214.628,92.361z M204.691,118.575c2.202,0,5.426,0.967,5.426,5.211
			s-3.653,7.306-7.735,7.306c-5.425,0-6.66-3.922-6.66-6.5c0-2.847,1.235-4.298,3.384-6.017H204.691z M201.952,107.188
			c-2.471,0-4.297-0.753-4.297-7.521c0-3.331,0.645-6.554,4.297-6.554c3.813,0,4.136,3.062,4.136,7.198
			C206.088,106.221,204.477,107.188,201.952,107.188z M231.921,102.245l-4.565-1.558c-3.653-1.236-3.922-2.848-3.922-3.868
			c0-2.471,2.363-3.706,4.728-3.706c4.458,0,5.693,2.954,7.144,6.446h0.698v-6.554h-0.753c-0.106,0.322-0.268,0.698-1.02,0.698
			c-0.859,0-3.008-1.343-5.693-1.343c-5.211,0-8.81,3.491-8.81,7.682c0,3.813,2.9,5.479,4.888,6.231l4.351,1.611
			c3.814,1.396,4.244,2.793,4.244,4.136c0,4.137-3.546,4.137-4.781,4.137c-4.995,0-6.606-3.761-8.271-7.789h-0.752v7.789h0.752
			c0.215-0.537,0.376-0.752,0.967-0.752c1.289,0,4.889,1.504,7.521,1.504c4.727,0,9.185-3.008,9.185-7.735
			C237.829,105.79,235.788,103.588,231.921,102.245z"/>
	</g>
</g>
</svg>
